<?xml version="1.0" encoding="iso-8859-1"?>
<!-- Generator: Adobe Illustrator 21.0.0, SVG Export Plug-In . SVG Version: 6.00 Build 0)  -->
<svg version="1.1" xmlns="http://www.w3.org/2000/svg" xmlns:xlink="http://www.w3.org/1999/xlink" x="0px" y="0px"
	 viewBox="0 0 44 44" style="enable-background:new 0 0 44 44;" xml:space="preserve">
<g id="mobile_x5F_pay">
</g>
<g id="browser">
</g>
<g id="coins">
</g>
<g id="container">
</g>
<g id="bill">
</g>
<g id="pallet">
</g>
<g id="search_x5F_prise">
</g>
<g id="search_x5F_sale">
</g>
<g id="mobile_x5F_shop_x5F_2">
</g>
<g id="computer_x5F_shop">
</g>
<g id="call">
</g>
<g id="computer">
</g>
<g id="calendar">
</g>
<g id="delivery_x5F_truck_x5F_2">
</g>
<g id="shopping_x5F_bag">
</g>
<g id="chat">
	<g>
		<circle cx="35" cy="22" r="2"/>
		<circle cx="15" cy="16" r="2"/>
		<circle cx="21" cy="16" r="2"/>
		<circle cx="9" cy="16" r="2"/>
		<path d="M41,11H30V8c0-1.654-1.346-3-3-3H3C1.346,5,0,6.346,0,8v22.586C0,31.917,1.083,33,2.414,33
			c0.644,0,1.25-0.251,1.707-0.707l4.415-4.414C9.094,27.32,9.867,27,10.657,27H14v3c0,1.654,1.346,3,3,3h16.343
			c0.79,0,1.562,0.32,2.121,0.879l4.415,4.415C40.336,38.749,40.942,39,41.586,39C42.917,39,44,37.917,44,36.586V14
			C44,12.346,42.654,11,41,11z M10.657,25c-1.335,0-2.591,0.521-3.535,1.465l-4.414,4.413C2.468,31.121,2,30.926,2,30.586V8
			c0-0.552,0.449-1,1-1h24c0.551,0,1,0.448,1,1v16c0,0.552-0.449,1-1,1H10.657z M42,36.586c0,0.34-0.469,0.531-0.707,0.293
			l-4.415-4.414C35.934,31.521,34.678,31,33.343,31H17c-0.551,0-1-0.448-1-1v-1v-2h11c1.654,0,3-1.346,3-3v-0.277
			c0.595-0.346,1-0.984,1-1.723c0-0.738-0.405-1.376-1-1.723V13h5h6c0.551,0,1,0.448,1,1V36.586z"/>
	</g>
</g>
<g id="dollar">
</g>
<g id="stopwatch">
</g>
<g id="delivery_x5F_parachute">
</g>
<g id="clipboard">
</g>
<g id="delivery_x5F_drone">
</g>
<g id="delivery_x5F_truck_x5F_1">
</g>
<g id="tag">
</g>
<g id="wallet">
</g>
<g id="basket">
</g>
<g id="trolley">
</g>
<g id="shopping_x5F_bag_x5F_full">
</g>
<g id="shop">
</g>
<g id="mobile_x5F_shop">
</g>
<g id="web_x5F_shop">
</g>
</svg>
