<svg viewBox="0 0 536 97" fill="none" xmlns="http://www.w3.org/2000/svg"><path d="M502.104 35.917c-.069 0-.114.023-.183.023l-9.19-9.19h-10.106v4.583h8.227l4.583 4.584h-18.562c-5.683 0-10.29 4.629-10.29 10.312a10.3 10.3 0 0 0 10.313 10.313c5.087 0 9.304-3.713 10.129-8.548l4.858-2.91c-.046.389-.091.756-.091 1.145a10.298 10.298 0 0 0 10.312 10.313 10.3 10.3 0 0 0 10.313-10.313 10.3 10.3 0 0 0-10.313-10.312zM482.258 47.97a5.702 5.702 0 0 1-5.431 3.987 5.731 5.731 0 0 1-5.729-5.729 5.731 5.731 0 0 1 5.729-5.729c2.567 0 4.698 1.696 5.431 4.01h-6.508v3.438l6.508.023zm19.777 3.987a5.731 5.731 0 0 1-5.729-5.729 5.731 5.731 0 0 1 5.729-5.729 5.732 5.732 0 0 1 5.73 5.73 5.732 5.732 0 0 1-5.73 5.728zM91.833 17.167H55.167v4.583h36.666v-4.583zm2.292 22.916V35.5l-2.292-11.458H55.167L52.875 35.5v4.583h2.292v13.75h22.916v-13.75h9.167v13.75h4.583v-13.75h2.292zM73.5 49.25H59.75v-9.167H73.5v9.167zM295.634 52.685h4.102c2.076 0 3.781-1.466 4.029-3.345l4.077-37.767h-12.357V2.292h-4.868v9.28h-12.283l.741 5.363c4.226 1.078 8.181 3.025 10.553 5.18 3.559 3.254 6.006 6.623 6.006 12.122v18.448zm-42.163-2.291v-2.269h37.146v2.269c0 1.26-1.113 2.291-2.496 2.291h-32.153c-1.384 0-2.497-1.03-2.497-2.291zm37.146-16.042c0-18.333-37.146-18.333-37.146 0h37.146zm-37.096 4.606h37.071v4.584h-37.071v-4.584zM212.47 42.097l9.738.278.278-9.738-10.016 9.46z" fill="#fff"/><path d="M131 39c13.488-15.847 49.971-38.033 88 0" stroke="#fff" stroke-width="3"/><path d="M428.47 44.097l9.738.278.278-9.738-10.016 9.46z" fill="#fff"/><path d="M347 41c13.488-15.847 49.971-38.033 88 0" stroke="#fff" stroke-width="3"/><path d="M6.407 92H4.772V81.163l-3.278 1.204v-1.476l4.658-1.75h.255V92zm4.966-.853c0-.28.082-.515.246-.703.17-.187.422-.28.756-.28s.586.093.756.28a.989.989 0 0 1 .264.703c0 .27-.088.496-.264.677-.17.182-.422.273-.756.273s-.586-.091-.756-.273a.972.972 0 0 1-.246-.677zm18.844-3.208c-.158 1.354-.66 2.4-1.503 3.138-.838.733-1.954 1.099-3.349 1.099-1.511 0-2.724-.542-3.638-1.626-.909-1.084-1.363-2.534-1.363-4.35v-1.231c0-1.19.211-2.236.633-3.138.428-.902 1.031-1.594 1.81-2.074.78-.487 1.682-.73 2.708-.73 1.359 0 2.449.381 3.27 1.143.82.756 1.297 1.805 1.432 3.146H28.52c-.146-1.02-.465-1.757-.957-2.214-.487-.458-1.17-.686-2.048-.686-1.079 0-1.925.398-2.54 1.195-.61.797-.915 1.931-.915 3.402v1.239c0 1.389.29 2.493.87 3.313.58.82 1.392 1.23 2.435 1.23.938 0 1.655-.21 2.154-.632.504-.428.837-1.169 1.002-2.224h1.696zm3.682-4.297c.721-.885 1.659-1.328 2.813-1.328 2.01 0 3.023 1.134 3.04 3.402V92h-1.625v-6.293c-.006-.685-.164-1.192-.475-1.52-.304-.329-.782-.493-1.432-.493-.528 0-.99.141-1.389.422-.398.281-.709.65-.932 1.108V92h-1.626V78.5H33.9v5.142zm7.858 3.515c0-.931.181-1.77.545-2.513.369-.745.879-1.319 1.53-1.723.655-.404 1.402-.607 2.24-.607 1.295 0 2.341.449 3.138 1.345.803.897 1.204 2.089 1.204 3.577v.115c0 .925-.179 1.757-.536 2.496a4.004 4.004 0 0 1-1.52 1.714c-.657.41-1.413.615-2.268.615-1.29 0-2.335-.448-3.138-1.345-.797-.896-1.195-2.083-1.195-3.56v-.114zm1.635.194c0 1.054.243 1.901.73 2.54.491.638 1.148.958 1.968.958.826 0 1.482-.323 1.969-.967.486-.65.73-1.559.73-2.725 0-1.043-.25-1.886-.748-2.531-.492-.65-1.148-.976-1.969-.976-.803 0-1.45.32-1.942.958-.492.64-.738 1.553-.738 2.743zm8.63-.194c0-.931.182-1.77.545-2.513.37-.745.88-1.319 1.53-1.723.656-.404 1.403-.607 2.24-.607 1.296 0 2.342.449 3.139 1.345.802.897 1.204 2.089 1.204 3.577v.115c0 .925-.179 1.757-.536 2.496a4.004 4.004 0 0 1-1.521 1.714c-.656.41-1.412.615-2.267.615-1.29 0-2.336-.448-3.138-1.345-.797-.896-1.196-2.083-1.196-3.56v-.114zm1.635.194c0 1.054.243 1.901.73 2.54.492.638 1.148.958 1.968.958.827 0 1.483-.323 1.97-.967.485-.65.729-1.559.729-2.725 0-1.043-.25-1.886-.747-2.531-.492-.65-1.149-.976-1.97-.976-.802 0-1.45.32-1.942.958-.492.64-.738 1.553-.738 2.743zm14.599 2.127c0-.44-.167-.78-.501-1.02-.328-.246-.905-.457-1.732-.633-.82-.176-1.473-.386-1.96-.633-.48-.246-.837-.539-1.072-.878-.228-.34-.343-.745-.343-1.213 0-.78.329-1.439.985-1.978.662-.539 1.506-.809 2.531-.809 1.078 0 1.951.279 2.62.835.673.557 1.01 1.269 1.01 2.136h-1.635c0-.445-.19-.829-.571-1.151-.375-.323-.85-.484-1.424-.484-.592 0-1.055.13-1.389.387a1.217 1.217 0 0 0-.5 1.01c0 .393.155.69.465.889.31.199.87.39 1.679.57.814.183 1.474.4 1.978.651.503.252.875.557 1.116.914.246.352.369.782.369 1.292 0 .85-.34 1.532-1.02 2.048-.68.51-1.561.765-2.645.765-.762 0-1.436-.135-2.022-.404-.586-.27-1.046-.645-1.38-1.126a2.76 2.76 0 0 1-.492-1.573h1.626c.03.545.246.979.65 1.301.41.316.95.475 1.618.475.615 0 1.107-.123 1.476-.37.375-.251.563-.585.563-1.001zm7.69 2.698c-1.289 0-2.338-.422-3.146-1.266-.809-.85-1.213-1.983-1.213-3.401v-.299c0-.943.179-1.784.536-2.522.363-.745.867-1.325 1.512-1.74a3.803 3.803 0 0 1 2.11-.633c1.236 0 2.196.407 2.882 1.221.686.815 1.028 1.98 1.028 3.498v.677h-6.442c.023.937.296 1.696.817 2.276.528.575 1.196.862 2.004.862.574 0 1.06-.118 1.46-.352a3.668 3.668 0 0 0 1.045-.932l.993.774c-.797 1.225-1.992 1.837-3.586 1.837zm-.202-8.526c-.656 0-1.207.24-1.652.721-.445.475-.72 1.143-.826 2.004h4.763v-.123c-.047-.826-.27-1.465-.668-1.916-.398-.457-.937-.686-1.617-.686zm9.835 3.507c0-.931.182-1.77.545-2.513.37-.745.879-1.319 1.53-1.723.656-.404 1.403-.607 2.24-.607 1.295 0 2.341.449 3.138 1.345.803.897 1.204 2.089 1.204 3.577v.115c0 .925-.178 1.757-.536 2.496a4.005 4.005 0 0 1-1.52 1.714c-.657.41-1.412.615-2.268.615-1.289 0-2.335-.448-3.138-1.345-.796-.896-1.195-2.083-1.195-3.56v-.114zm1.635.194c0 1.054.243 1.901.73 2.54.492.638 1.148.958 1.968.958.826 0 1.482-.323 1.969-.967.486-.65.73-1.559.73-2.725 0-1.043-.25-1.886-.748-2.531-.492-.65-1.148-.976-1.969-.976-.802 0-1.45.32-1.942.958-.492.64-.738 1.553-.738 2.743zm14.932 3.709c-.632.744-1.561 1.116-2.786 1.116-1.013 0-1.787-.293-2.32-.88-.527-.59-.794-1.464-.8-2.618V82.49h1.626v6.144c0 1.441.586 2.162 1.758 2.162 1.242 0 2.068-.463 2.479-1.389V82.49h1.626V92h-1.547l-.036-.94zm6.267-10.873v2.303h1.775v1.257h-1.775v5.897c0 .381.079.668.237.862.159.187.428.281.809.281.187 0 .445-.035.773-.105V92a4.705 4.705 0 0 1-1.248.176c-.726 0-1.274-.22-1.643-.66-.369-.439-.554-1.063-.554-1.872v-5.897h-1.731V82.49h1.731v-2.302h1.626zM113.862 92h-1.626V78.5h1.626V92zm6.557.176c-1.289 0-2.338-.422-3.147-1.266-.808-.85-1.212-1.983-1.212-3.401v-.299c0-.943.178-1.784.536-2.522.363-.745.867-1.325 1.511-1.74a3.806 3.806 0 0 1 2.11-.633c1.236 0 2.197.407 2.883 1.221.685.815 1.028 1.98 1.028 3.498v.677h-6.442c.023.937.295 1.696.817 2.276.527.575 1.195.862 2.004.862.574 0 1.06-.118 1.459-.352a3.675 3.675 0 0 0 1.046-.932l.993.774c-.797 1.225-1.992 1.837-3.586 1.837zm-.202-8.526c-.656 0-1.207.24-1.653.721-.445.475-.72 1.143-.826 2.004h4.764v-.123c-.047-.826-.27-1.465-.668-1.916-.398-.457-.938-.686-1.617-.686zm8.007-3.463v2.303h1.775v1.257h-1.775v5.897c0 .381.079.668.237.862.158.187.428.281.809.281.187 0 .445-.035.773-.105V92a4.716 4.716 0 0 1-1.248.176c-.727 0-1.274-.22-1.644-.66-.369-.439-.553-1.063-.553-1.872v-5.897h-1.732V82.49h1.732v-2.302h1.626zM236.448 92h-8.385v-1.169l4.43-4.922c.656-.744 1.108-1.348 1.354-1.81.252-.47.378-.953.378-1.45 0-.668-.203-1.216-.607-1.644-.404-.428-.943-.642-1.617-.642-.809 0-1.439.232-1.89.695-.445.457-.668 1.095-.668 1.916h-1.626c0-1.178.378-2.13 1.134-2.857.762-.726 1.778-1.09 3.05-1.09 1.189 0 2.13.314 2.821.94.692.622 1.037 1.451 1.037 2.488 0 1.26-.802 2.76-2.408 4.5l-3.428 3.718h6.425V92zm1.925-.853c0-.28.082-.515.246-.703.17-.187.422-.28.756-.28s.586.093.756.28a.988.988 0 0 1 .264.703c0 .27-.088.496-.264.677-.17.182-.422.273-.756.273s-.586-.091-.756-.273a.972.972 0 0 1-.246-.677zm19.274-5.132c0 1.254-.21 2.35-.632 3.287-.422.931-1.02 1.643-1.793 2.135-.774.493-1.676.739-2.707.739-1.008 0-1.902-.246-2.681-.739-.779-.498-1.386-1.204-1.819-2.118-.428-.92-.648-1.983-.66-3.19v-.923c0-1.23.214-2.317.642-3.26.428-.944 1.031-1.665 1.811-2.163.785-.504 1.681-.756 2.689-.756 1.025 0 1.928.25 2.707.747.785.493 1.389 1.21 1.811 2.154.422.937.632 2.03.632 3.278v.809zm-1.678-.826c0-1.518-.305-2.681-.914-3.49-.61-.814-1.462-1.221-2.558-1.221-1.066 0-1.907.407-2.522 1.221-.61.809-.923 1.934-.941 3.375v.94c0 1.471.308 2.629.923 3.472.621.838 1.474 1.257 2.558 1.257 1.089 0 1.933-.395 2.531-1.186.598-.797.905-1.937.923-3.42v-.948zm8.552-1.24a4.886 4.886 0 0 0-.8-.061c-1.067 0-1.79.454-2.171 1.362V92h-1.626v-9.51h1.582l.026 1.099c.533-.85 1.289-1.275 2.268-1.275.316 0 .556.042.721.124v1.511zm.931 3.217c0-1.459.346-2.63 1.037-3.516.692-.89 1.597-1.336 2.716-1.336 1.113 0 1.995.381 2.646 1.143V78.5h1.626V92h-1.495l-.079-1.02c-.65.797-1.555 1.196-2.715 1.196-1.102 0-2.001-.451-2.699-1.354-.691-.902-1.037-2.08-1.037-3.533v-.123zm1.626.185c0 1.078.223 1.921.668 2.53.445.61 1.061.915 1.846.915 1.031 0 1.784-.463 2.259-1.389V85.04c-.487-.896-1.234-1.345-2.242-1.345-.797 0-1.418.308-1.863.923-.445.615-.668 1.527-.668 2.734zm12.876 4.825c-1.289 0-2.338-.422-3.146-1.266-.809-.85-1.213-1.983-1.213-3.401v-.299c0-.943.178-1.784.536-2.522.363-.745.867-1.325 1.512-1.74a3.8 3.8 0 0 1 2.109-.633c1.236 0 2.197.407 2.883 1.221.685.815 1.028 1.98 1.028 3.498v.677h-6.442c.023.937.296 1.696.817 2.276.527.575 1.195.862 2.004.862.574 0 1.061-.118 1.459-.352a3.675 3.675 0 0 0 1.046-.932l.993.774c-.797 1.225-1.992 1.837-3.586 1.837zm-.202-8.526c-.656 0-1.207.24-1.652.721-.446.475-.721 1.143-.827 2.004h4.764v-.123c-.047-.826-.269-1.465-.668-1.916-.398-.457-.937-.686-1.617-.686zm10.397.3a4.864 4.864 0 0 0-.799-.062c-1.067 0-1.79.454-2.171 1.362V92h-1.626v-9.51h1.582l.026 1.099c.533-.85 1.289-1.275 2.268-1.275.316 0 .556.042.72.124v1.511zm13.281 2.399h-5.37V92h-1.688V79.203h7.928v1.389h-6.24v4.377h5.37v1.38zm2.012.808c0-.931.182-1.77.545-2.513.369-.745.879-1.319 1.53-1.723.656-.404 1.403-.607 2.241-.607 1.295 0 2.341.449 3.138 1.345.802.897 1.204 2.089 1.204 3.577v.115c0 .925-.179 1.757-.537 2.496a4 4 0 0 1-1.52 1.714c-.656.41-1.412.615-2.268.615-1.289 0-2.335-.448-3.137-1.345-.797-.896-1.196-2.083-1.196-3.56v-.114zm1.635.194c0 1.054.243 1.901.73 2.54.492.638 1.148.958 1.968.958.827 0 1.483-.323 1.969-.967.486-.65.73-1.559.73-2.725 0-1.043-.249-1.886-.747-2.531-.493-.65-1.149-.976-1.969-.976-.803 0-1.45.32-1.943.958-.492.64-.738 1.553-.738 2.743zm8.631-.194c0-.931.182-1.77.545-2.513.369-.745.879-1.319 1.529-1.723.656-.404 1.404-.607 2.241-.607 1.295 0 2.341.449 3.138 1.345.803.897 1.204 2.089 1.204 3.577v.115c0 .925-.178 1.757-.536 2.496a4 4 0 0 1-1.52 1.714c-.657.41-1.413.615-2.268.615-1.289 0-2.335-.448-3.138-1.345-.797-.896-1.195-2.083-1.195-3.56v-.114zm1.635.194c0 1.054.243 1.901.729 2.54.492.638 1.149.958 1.969.958.826 0 1.482-.323 1.969-.967.486-.65.729-1.559.729-2.725 0-1.043-.249-1.886-.747-2.531-.492-.65-1.148-.976-1.969-.976-.802 0-1.45.32-1.942.958-.492.64-.738 1.553-.738 2.743zm8.666-.185c0-1.459.345-2.63 1.037-3.516.691-.89 1.597-1.336 2.716-1.336 1.113 0 1.995.381 2.645 1.143V78.5h1.626V92h-1.494l-.079-1.02c-.65.797-1.556 1.196-2.716 1.196-1.101 0-2.001-.451-2.698-1.354-.692-.902-1.037-2.08-1.037-3.533v-.123zm1.626.185c0 1.078.222 1.921.668 2.53.445.61 1.06.915 1.845.915 1.032 0 1.785-.463 2.259-1.389V85.04c-.486-.896-1.233-1.345-2.241-1.345-.797 0-1.418.308-1.863.923-.446.615-.668 1.527-.668 2.734zM437.428 84.81h1.221c.768-.011 1.372-.213 1.811-.606.439-.392.659-.923.659-1.59 0-1.5-.747-2.25-2.241-2.25-.703 0-1.266.201-1.688.606-.416.398-.624.928-.624 1.59h-1.626c0-1.013.37-1.854 1.108-2.522.744-.674 1.687-1.01 2.83-1.01 1.207 0 2.153.319 2.839.957.685.639 1.028 1.527 1.028 2.663 0 .557-.182 1.096-.545 1.618a3.23 3.23 0 0 1-1.468 1.169c.704.222 1.246.591 1.626 1.107.387.516.58 1.145.58 1.89 0 1.148-.375 2.06-1.125 2.733-.75.674-1.725 1.01-2.926 1.01s-2.18-.324-2.936-.975c-.75-.65-1.125-1.509-1.125-2.575h1.635c0 .674.22 1.213.659 1.617.44.404 1.028.607 1.767.607.785 0 1.385-.205 1.801-.616.416-.41.624-.999.624-1.766 0-.744-.228-1.316-.685-1.714-.457-.398-1.116-.604-1.978-.615h-1.221V84.81zm7.945 6.337c0-.28.082-.515.246-.703.17-.187.422-.28.756-.28s.586.093.756.28a.988.988 0 0 1 .264.703c0 .27-.088.496-.264.677-.17.182-.422.273-.756.273s-.586-.091-.756-.273a.972.972 0 0 1-.246-.677zm12.19-3.181l.247 1.687.36-1.52 2.531-8.93h1.424l2.47 8.93.351 1.547.273-1.723 1.986-8.754h1.696L465.799 92h-1.538l-2.637-9.325-.202-.976-.202.976L458.486 92h-1.538l-3.094-12.797h1.688l2.021 8.763zm16.629 4.21c-1.289 0-2.338-.422-3.146-1.266-.809-.85-1.213-1.983-1.213-3.401v-.299c0-.943.179-1.784.536-2.522.363-.745.867-1.325 1.512-1.74a3.8 3.8 0 0 1 2.109-.633c1.237 0 2.198.407 2.883 1.221.686.815 1.028 1.98 1.028 3.498v.677h-6.442c.023.937.296 1.696.817 2.276.528.575 1.196.862 2.004.862.574 0 1.061-.118 1.459-.352a3.662 3.662 0 0 0 1.046-.932l.993.774c-.797 1.225-1.992 1.837-3.586 1.837zm-.202-8.526c-.656 0-1.207.24-1.652.721-.445.475-.721 1.143-.826 2.004h4.763v-.123c-.046-.826-.269-1.465-.668-1.916-.398-.457-.937-.686-1.617-.686zm9.87 3.516c0-1.459.346-2.63 1.037-3.516.692-.89 1.597-1.336 2.716-1.336 1.114 0 1.995.381 2.646 1.143V78.5h1.626V92h-1.494l-.079-1.02c-.651.797-1.556 1.196-2.716 1.196-1.102 0-2.001-.451-2.699-1.354-.691-.902-1.037-2.08-1.037-3.533v-.123zm1.626.185c0 1.078.223 1.921.668 2.53.446.61 1.061.915 1.846.915 1.031 0 1.784-.463 2.259-1.389V85.04c-.487-.896-1.234-1.345-2.241-1.345-.797 0-1.418.308-1.864.923-.445.615-.668 1.527-.668 2.734zm12.876 4.825c-1.289 0-2.338-.422-3.146-1.266-.809-.85-1.213-1.983-1.213-3.401v-.299c0-.943.179-1.784.536-2.522.363-.745.867-1.325 1.512-1.74a3.8 3.8 0 0 1 2.109-.633c1.236 0 2.197.407 2.883 1.221.686.815 1.028 1.98 1.028 3.498v.677h-6.442c.023.937.296 1.696.817 2.276.528.575 1.196.862 2.004.862.574 0 1.061-.118 1.459-.352a3.662 3.662 0 0 0 1.046-.932l.993.774c-.797 1.225-1.992 1.837-3.586 1.837zm-.202-8.526c-.656 0-1.207.24-1.652.721-.446.475-.721 1.143-.826 2.004h4.763v-.123c-.047-.826-.269-1.465-.668-1.916-.398-.457-.937-.686-1.617-.686zm7.568 8.35h-1.626V78.5h1.626V92zm4.376 0h-1.625v-9.51h1.625V92zm-1.757-12.032c0-.264.079-.487.237-.668.164-.182.404-.273.721-.273.316 0 .556.091.72.273a.96.96 0 0 1 .246.668.93.93 0 0 1-.246.659c-.164.176-.404.264-.72.264-.317 0-.557-.088-.721-.264a.95.95 0 0 1-.237-.66zm7.506 9.826l2.355-7.304h1.661l-3.41 9.51h-1.239l-3.446-9.51h1.662l2.417 7.304zm9.404 2.382c-1.289 0-2.338-.422-3.147-1.266-.808-.85-1.213-1.983-1.213-3.401v-.299c0-.943.179-1.784.537-2.522.363-.745.867-1.325 1.511-1.74a3.806 3.806 0 0 1 2.11-.633c1.236 0 2.197.407 2.883 1.221.685.815 1.028 1.98 1.028 3.498v.677h-6.443c.024.937.296 1.696.818 2.276.527.575 1.195.862 2.004.862.574 0 1.06-.118 1.459-.352a3.675 3.675 0 0 0 1.046-.932l.993.774c-.797 1.225-1.992 1.837-3.586 1.837zm-.202-8.526c-.657 0-1.207.24-1.653.721-.445.475-.72 1.143-.826 2.004h4.764v-.123c-.047-.826-.27-1.465-.668-1.916-.399-.457-.938-.686-1.617-.686zm10.397.3a4.877 4.877 0 0 0-.8-.062c-1.066 0-1.79.454-2.171 1.362V92h-1.626v-9.51h1.583l.026 1.099c.533-.85 1.289-1.275 2.267-1.275.317 0 .557.042.721.124v1.511z" fill="#fff"/></svg>