<svg id="Layer_1" data-name="Layer 1" xmlns="http://www.w3.org/2000/svg" width="184.29" height="31.43" viewBox="0 0 184.29 31.43"><defs><style>.cls-1,.cls-3{fill:#fff;}.cls-2{opacity:0.2;}.cls-3{opacity:0.8;}</style></defs><title>logo-white</title><path class="cls-1" d="M21.15,27.44h-.86a2.23,2.23,0,0,0-2.22,2.25h0a2.23,2.23,0,0,0,2.25,2.22h.85a2.24,2.24,0,0,0,2.23-2.25h0A2.24,2.24,0,0,0,21.15,27.44Z" transform="translate(-0.45 -0.49)"/><path class="cls-1" d="M15.42,5.11h1.47a2.24,2.24,0,0,0,0-4.48H15.4a2.24,2.24,0,0,0,0,4.48Z" transform="translate(-0.45 -0.49)"/><path class="cls-1" d="M10.18,18.56H9.33A2.24,2.24,0,0,0,7.1,20.81h0A2.24,2.24,0,0,0,9.35,23h.86a2.23,2.23,0,0,0,2.22-2.25h0A2.23,2.23,0,0,0,10.18,18.56Z" transform="translate(-0.45 -0.49)"/><path class="cls-1" d="M7.86,11.86h0A2.22,2.22,0,0,0,5.61,9.64H2.68A2.25,2.25,0,0,0,.45,11.9h0A2.25,2.25,0,0,0,2.7,14.13l2.94,0A2.23,2.23,0,0,0,7.86,11.86Z" transform="translate(-0.45 -0.49)"/><path class="cls-1" d="M50.3,11.63a.71.71,0,0,0,.75-.66.72.72,0,0,0-.77-.65.71.71,0,0,0-.74.67A.7.7,0,0,0,50.3,11.63Z" transform="translate(-0.45 -0.49)"/><path class="cls-1" d="M48.7,9.47a.87.87,0,0,0,.13-1.2.88.88,0,0,0-1.2.13.87.87,0,0,0-.13,1.2A.87.87,0,0,0,48.7,9.47Z" transform="translate(-0.45 -0.49)"/><path class="cls-1" d="M52.72,9.66c.25-.22.17-.71-.17-1.1s-.83-.52-1.08-.3-.17.72.18,1.1S52.48,9.88,52.72,9.66Z" transform="translate(-0.45 -0.49)"/><path class="cls-1" d="M58.34,16.21C58.34,7.68,52.67.74,44.2.5h2L23,.59a2.24,2.24,0,1,0,0,4.47l6.57,0a2.23,2.23,0,0,1,2.25,2.22h0A2.23,2.23,0,0,1,29.59,9.5l-17.33.1A2.24,2.24,0,0,0,10,11.85h0a2.24,2.24,0,0,0,2.25,2.22l12-.09a2.24,2.24,0,0,1,2.25,2.22h0a2.24,2.24,0,0,1-2.23,2.25L17,18.52a2.23,2.23,0,0,0-2.22,2.25h0A2.23,2.23,0,0,0,17.05,23l12.61-.07a2.24,2.24,0,0,1,2.25,2.23h0a2.24,2.24,0,0,1-2.22,2.25h-2a2.23,2.23,0,0,0-2.22,2.25h0a2.23,2.23,0,0,0,2.25,2.22l16.77-.07c.37.05.74.07,1.11.09l-.53,0C53.12,31.21,58.34,24.45,58.34,16.21ZM34.41,12.58c0-2.58,4.87-7.53,10.88-7.53h0c6,0,10.87,5.34,10.87,7.53v0a1.24,1.24,0,0,1-1.25,1.24H35.66a1.24,1.24,0,0,1-1.25-1.24Zm6,5.33a.85.85,0,0,0,1.21,0l2.76-2.76H54a2.17,2.17,0,0,1,2.19,2A2.13,2.13,0,0,1,54,19.4H36.54a2.13,2.13,0,0,1-2.12-2.27,2.17,2.17,0,0,1,2.19-2h1.06Zm-1-2.76h3.31l-1.44,1.44a.31.31,0,0,1-.42,0ZM37.65,26.37a3.26,3.26,0,0,1-3.26-3.26V21.62a.91.91,0,0,1,.91-.91h20a.91.91,0,0,1,.91.91v1.49a3.26,3.26,0,0,1-3.26,3.26Z" transform="translate(-0.45 -0.49)"/><g class="cls-2"><path class="cls-1" d="M46.28,31.92l-.71,0Z" transform="translate(-0.45 -0.49)"/></g><path class="cls-3" d="M46.74.5H44.2c8.47.24,14.14,7.18,14.14,15.71,0,8.24-5.22,15-13.3,15.66l.53,0,.71,0A15.71,15.71,0,0,0,46.74.5Z" transform="translate(-0.45 -0.49)"/><path class="cls-1" d="M73.66,26.21a4.44,4.44,0,0,1-3.07-1.08,4.69,4.69,0,0,1-1.32-3.46V11.83a4.67,4.67,0,0,1,1.32-3.46,4.44,4.44,0,0,1,3.07-1.08,4.32,4.32,0,0,1,3.06,1.08A4.57,4.57,0,0,1,78,11.83v1.64h-2.9V11.83a1.82,1.82,0,0,0-.37-1.32,1.62,1.62,0,0,0-1.11-.32,1.58,1.58,0,0,0-1.09.32,1.79,1.79,0,0,0-.4,1.32v9.84a1.79,1.79,0,0,0,.4,1.32,1.58,1.58,0,0,0,1.09.32A1.62,1.62,0,0,0,74.77,23a1.82,1.82,0,0,0,.37-1.32V19.29H78v2.38a4.58,4.58,0,0,1-1.32,3.46A4.32,4.32,0,0,1,73.66,26.21Z" transform="translate(-0.45 -0.49)"/><path class="cls-1" d="M86.61,26l-.53-2.93H82.75L82.22,26h-3L83,7.5h2.91L89.57,26Zm-3.36-5.84h2.33l-1.16-6.64Z" transform="translate(-0.45 -0.49)"/><path class="cls-1" d="M101.71,7.5h1.66V26h-2.91V16.78l-2.35,6.31H96.42l-2.35-6.31V26H91.16V7.5h1.66l4.44,10.25Z" transform="translate(-0.45 -0.49)"/><path class="cls-1" d="M108.55,26h-2.91V7.5H110a4.3,4.3,0,0,1,3.07,1.11A4.42,4.42,0,0,1,114.42,12v2a4.49,4.49,0,0,1-1.32,3.47A4.34,4.34,0,0,1,110,18.6h-1.48Zm0-10.31H110a1.58,1.58,0,0,0,1.09-.31,1.81,1.81,0,0,0,.39-1.33V12a1.86,1.86,0,0,0-.39-1.32A1.58,1.58,0,0,0,110,10.4h-1.48Z" transform="translate(-0.45 -0.49)"/><path class="cls-1" d="M120.42,26.21a4.3,4.3,0,0,1-3.06-1.08A4.58,4.58,0,0,1,116,21.67V7.5h2.9V21.67a1.82,1.82,0,0,0,.37,1.32,1.62,1.62,0,0,0,1.11.32,1.58,1.58,0,0,0,1.09-.32,1.79,1.79,0,0,0,.39-1.32V7.5h2.91V21.67a4.69,4.69,0,0,1-1.32,3.46A4.44,4.44,0,0,1,120.42,26.21Z" transform="translate(-0.45 -0.49)"/><path class="cls-1" d="M130.92,26.21a4.34,4.34,0,0,1-3.07-1.08,4.58,4.58,0,0,1-1.32-3.46V19.26h2.91v2.41a1.75,1.75,0,0,0,.4,1.32,1.55,1.55,0,0,0,1.08.32A1.5,1.5,0,0,0,132,23a1.69,1.69,0,0,0,.4-1.32V20.5a2.79,2.79,0,0,0-1-2.11,9.32,9.32,0,0,0-1.11-.69,10.59,10.59,0,0,1-1.82-1.16A6,6,0,0,1,127,14.61a5.54,5.54,0,0,1-.5-2.33v-.45a4.57,4.57,0,0,1,1.32-3.46,4.9,4.9,0,0,1,6.14,0,4.57,4.57,0,0,1,1.32,3.46v1.61H132.4V11.83a1.69,1.69,0,0,0-.4-1.32,1.5,1.5,0,0,0-1.08-.32,1.55,1.55,0,0,0-1.08.32,1.75,1.75,0,0,0-.4,1.32v.45a2.72,2.72,0,0,0,1,2.09,8,8,0,0,0,1,.63,10.49,10.49,0,0,1,1.9,1.22,5.5,5.5,0,0,1,2,4.28v1.17A4.58,4.58,0,0,1,134,25.13,4.34,4.34,0,0,1,130.92,26.21Z" transform="translate(-0.45 -0.49)"/><path class="cls-1" d="M145.8,26h-4.38V7.5h4a4.41,4.41,0,0,1,3,1,3.51,3.51,0,0,1,1,1.48,5.1,5.1,0,0,1,.35,2v1.72a3.73,3.73,0,0,1-1.06,2.86,3.8,3.8,0,0,1,1.45,3.33v1.69a4.83,4.83,0,0,1-.34,1.93,3.53,3.53,0,0,1-1,1.48A4.32,4.32,0,0,1,145.8,26Zm-1.48-10.68h1.09a1.52,1.52,0,0,0,1.08-.32,1.78,1.78,0,0,0,.4-1.32V12a1.77,1.77,0,0,0-.37-1.26,1.6,1.6,0,0,0-1.11-.3h-1.09Zm0,7.77h1.48a1.61,1.61,0,0,0,1.11-.29,1.62,1.62,0,0,0,.38-1.24V19.87a1.76,1.76,0,0,0-.4-1.32,1.58,1.58,0,0,0-1.09-.32h-1.48Z" transform="translate(-0.45 -0.49)"/><path class="cls-1" d="M152.1,26V7.5H155V26Z" transform="translate(-0.45 -0.49)"/><path class="cls-1" d="M165.31,7.5v2.9h-3V26h-2.9V10.4h-3V7.5Z" transform="translate(-0.45 -0.49)"/><path class="cls-1" d="M174.44,10.4h-4.76v4.66H173V18h-3.28v5.12h4.76V26h-7.67V7.5h7.67Z" transform="translate(-0.45 -0.49)"/><path class="cls-1" d="M180.36,26.21a4.34,4.34,0,0,1-3.07-1.08A4.58,4.58,0,0,1,176,21.67V19.26h2.91v2.41a1.79,1.79,0,0,0,.39,1.32,1.58,1.58,0,0,0,1.09.32,1.5,1.5,0,0,0,1.08-.32,1.69,1.69,0,0,0,.4-1.32V20.5a2.79,2.79,0,0,0-1-2.11,9.32,9.32,0,0,0-1.11-.69,10.2,10.2,0,0,1-1.82-1.16,6,6,0,0,1-1.46-1.93,5.54,5.54,0,0,1-.5-2.33v-.45a4.57,4.57,0,0,1,1.32-3.46,4.89,4.89,0,0,1,6.13,0,4.54,4.54,0,0,1,1.33,3.46v1.61h-2.91V11.83a1.69,1.69,0,0,0-.4-1.32,1.5,1.5,0,0,0-1.08-.32,1.58,1.58,0,0,0-1.09.32,1.79,1.79,0,0,0-.39,1.32v.45a2.68,2.68,0,0,0,1,2.09,8,8,0,0,0,1,.63,10.88,10.88,0,0,1,1.9,1.22,5.53,5.53,0,0,1,2,4.28v1.17a4.55,4.55,0,0,1-1.33,3.46A4.3,4.3,0,0,1,180.36,26.21Z" transform="translate(-0.45 -0.49)"/></svg>